<svg width="83" height="25" viewBox="0 0 83 25" fill="none" xmlns="http://www.w3.org/2000/svg">
<path d="M8.48438 12.1406C8.35938 12.1406 8.1875 12.1979 7.96875 12.3125C7.76042 12.4167 7.50521 12.6042 7.20312 12.875C6.91146 13.1458 6.57812 13.5104 6.20312 13.9688C5.83854 14.4167 5.4375 14.9896 5 15.6875C4.90625 16.375 4.82812 16.9896 4.76562 17.5312C4.71354 18.0729 4.6875 18.5 4.6875 18.8125C4.6875 19.0833 4.76562 19.3594 4.92188 19.6406C5.07812 19.9115 5.27083 20.1562 5.5 20.375C5.72917 20.5938 5.96354 20.776 6.20312 20.9219C6.45312 21.0677 6.66667 21.1458 6.84375 21.1562C7.28125 21.1875 7.66146 21.099 7.98438 20.8906C8.30729 20.6823 8.59896 20.3906 8.85938 20.0156C9.05729 19.7344 9.22917 19.4062 9.375 19.0312C9.52083 18.6458 9.64062 18.25 9.73438 17.8438C9.82812 17.4375 9.89583 17.0312 9.9375 16.625C9.97917 16.2083 10 15.8229 10 15.4688C10 14.9896 9.96875 14.5469 9.90625 14.1406C9.84375 13.7344 9.74479 13.3854 9.60938 13.0938C9.48438 12.7917 9.32812 12.5573 9.14062 12.3906C8.95312 12.224 8.73438 12.1406 8.48438 12.1406ZM14.125 14.2188C14.1042 15.3229 13.8438 16.4427 13.3438 17.5781C12.8542 18.7135 12.2135 19.7917 11.4219 20.8125C11.0573 21.2812 10.6406 21.7344 10.1719 22.1719C9.71354 22.599 9.20833 22.9792 8.65625 23.3125C8.11458 23.6354 7.53646 23.8958 6.92188 24.0938C6.30729 24.2917 5.67188 24.3906 5.01562 24.3906C4.77604 24.3906 4.49479 24.3333 4.17188 24.2188C3.84896 24.1042 3.51562 23.9479 3.17188 23.75C2.83854 23.5521 2.50521 23.3125 2.17188 23.0312C1.83854 22.75 1.54167 22.4427 1.28125 22.1094C1.02083 21.776 0.807292 21.4219 0.640625 21.0469C0.473958 20.6719 0.390625 20.2865 0.390625 19.8906C0.390625 19.6198 0.416667 19.2188 0.46875 18.6875C0.53125 18.1458 0.609375 17.526 0.703125 16.8281C0.807292 16.1302 0.921875 15.375 1.04688 14.5625C1.17188 13.7396 1.30208 12.9062 1.4375 12.0625C1.57292 11.2188 1.70312 10.3854 1.82812 9.5625C1.96354 8.72917 2.07812 7.95312 2.17188 7.23438C2.27604 6.50521 2.35938 5.85938 2.42188 5.29688C2.48438 4.73438 2.51562 4.29167 2.51562 3.96875C2.51562 3.72917 2.48958 3.54167 2.4375 3.40625C2.38542 3.26042 2.31771 3.15625 2.23438 3.09375C2.15104 3.02083 2.0625 2.97396 1.96875 2.95312C1.875 2.93229 1.78125 2.92188 1.6875 2.92188C1.59375 2.92188 1.46354 2.94792 1.29688 3C1.14062 3.04167 0.989583 3.08854 0.84375 3.14062C0.65625 3.20312 0.46875 3.27083 0.28125 3.34375L0 2.10938C0.479167 1.88021 1.02604 1.64062 1.64062 1.39062C2.26562 1.14062 2.875 0.911458 3.46875 0.703125C4.0625 0.494792 4.59896 0.328125 5.07812 0.203125C5.56771 0.0677083 5.91667 0 6.125 0C6.48958 0 6.73438 0.09375 6.85938 0.28125C6.98438 0.46875 7.04688 0.802083 7.04688 1.28125C7.04688 1.71875 7 2.32812 6.90625 3.10938C6.8125 3.88021 6.69271 4.75521 6.54688 5.73438C6.41146 6.70312 6.25521 7.73438 6.07812 8.82812C5.90104 9.91146 5.72917 10.9792 5.5625 12.0312C6.07292 11.4167 6.55208 10.9219 7 10.5469C7.45833 10.1615 7.88542 9.86458 8.28125 9.65625C8.67708 9.44792 9.04688 9.30729 9.39062 9.23438C9.73438 9.16146 10.0469 9.125 10.3281 9.125C10.8594 9.11458 11.3542 9.22396 11.8125 9.45312C12.2812 9.67188 12.6875 10 13.0312 10.4375C13.375 10.8646 13.6458 11.3958 13.8438 12.0312C14.0417 12.6667 14.1354 13.3958 14.125 14.2188Z" fill="#0F2B4A"/>
<path d="M27.8988 11.875C27.8988 12.1562 27.8623 12.4635 27.7894 12.7969C27.7269 13.1198 27.5915 13.4635 27.3831 13.8281C27.1852 14.1823 26.8988 14.5573 26.5238 14.9531C26.1488 15.349 25.6488 15.7552 25.0238 16.1719C24.3988 16.5885 23.6331 17.0156 22.7269 17.4531C21.8206 17.8906 20.7373 18.3333 19.4769 18.7812C19.6227 19.7292 19.8883 20.4688 20.2738 21C20.6592 21.5208 21.1019 21.7812 21.6019 21.7812C22.0498 21.7812 22.7008 21.5521 23.555 21.0938C24.4196 20.6354 25.4821 19.901 26.7425 18.8906C26.805 18.9219 26.8779 19 26.9613 19.125C27.0446 19.2396 27.1227 19.3698 27.1956 19.5156C27.279 19.651 27.3519 19.7812 27.4144 19.9062L27.5394 20.1562C26.6852 20.8958 25.904 21.5365 25.1956 22.0781C24.4873 22.6094 23.831 23.0469 23.2269 23.3906C22.6227 23.7344 22.055 23.9844 21.5238 24.1406C21.0029 24.3073 20.4977 24.3906 20.0081 24.3906C19.5498 24.3906 19.0446 24.2917 18.4925 24.0938C17.9404 23.9062 17.4248 23.6042 16.9456 23.1875C16.4769 22.7604 16.081 22.2083 15.7581 21.5312C15.4456 20.8438 15.2894 20.0052 15.2894 19.0156C15.2894 18.2031 15.3883 17.4323 15.5863 16.7031C15.7842 15.9635 16.0654 15.2656 16.43 14.6094C16.7946 13.9427 17.2321 13.3125 17.7425 12.7188C18.2633 12.125 18.8467 11.5521 19.4925 11C19.7217 10.8021 20.0133 10.5938 20.3675 10.375C20.7217 10.1562 21.1071 9.95312 21.5238 9.76562C21.9508 9.57812 22.3883 9.42708 22.8363 9.3125C23.2946 9.1875 23.7425 9.125 24.18 9.125C24.8154 9.125 25.3675 9.20833 25.8363 9.375C26.305 9.53125 26.6904 9.73958 26.9925 10C27.305 10.2604 27.5342 10.5573 27.68 10.8906C27.8258 11.2135 27.8988 11.5417 27.8988 11.875ZM20.8831 12.4688C20.654 12.7708 20.4508 13.0781 20.2738 13.3906C20.1071 13.6927 19.9613 14.0156 19.8363 14.3594C19.7113 14.7031 19.6123 15.0729 19.5394 15.4688C19.4665 15.8646 19.4196 16.3021 19.3988 16.7812C20.3154 16.3438 21.0446 15.9531 21.5863 15.6094C22.1383 15.2552 22.555 14.9219 22.8363 14.6094C23.1279 14.2969 23.3154 13.9896 23.3988 13.6875C23.4821 13.3854 23.5238 13.0677 23.5238 12.7344C23.5238 12.3073 23.43 11.9792 23.2425 11.75C23.055 11.5104 22.8258 11.3906 22.555 11.3906C22.4717 11.3906 22.3623 11.4167 22.2269 11.4688C22.0915 11.5208 21.9456 11.5938 21.7894 11.6875C21.6331 11.7812 21.4717 11.8958 21.305 12.0312C21.1488 12.1562 21.0081 12.3021 20.8831 12.4688Z" fill="#0F2B4A"/>
<path d="M40.9225 10.5625C40.7558 10.8021 40.5527 11.0781 40.3131 11.3906C40.084 11.6927 39.8496 11.9844 39.61 12.2656C39.3808 12.5469 39.1621 12.7865 38.9538 12.9844C38.7454 13.1719 38.584 13.2656 38.4694 13.2656C38.2923 13.2656 38.0944 13.151 37.8756 12.9219C37.6569 12.6927 37.4069 12.4427 37.1256 12.1719C36.8548 11.8906 36.5579 11.6354 36.235 11.4062C35.9121 11.1771 35.5579 11.0625 35.1725 11.0625C34.5892 11.0625 34.1777 11.1979 33.9381 11.4688C33.6985 11.7292 33.5788 12.0781 33.5788 12.5156C33.5788 12.776 33.636 13.0156 33.7506 13.2344C33.8652 13.4427 34.0319 13.6458 34.2506 13.8438C34.4798 14.0312 34.7558 14.2188 35.0788 14.4062C35.4121 14.5938 35.7871 14.7969 36.2038 15.0156C36.6308 15.2344 37.0475 15.474 37.4538 15.7344C37.8704 15.9948 38.235 16.2969 38.5475 16.6406C38.8704 16.974 39.1308 17.3542 39.3288 17.7812C39.5267 18.1979 39.6256 18.6823 39.6256 19.2344C39.6256 19.7135 39.5163 20.1771 39.2975 20.625C39.0892 21.0625 38.8027 21.474 38.4381 21.8594C38.0735 22.2344 37.6517 22.5781 37.1725 22.8906C36.7038 23.2031 36.2142 23.474 35.7038 23.7031C35.1933 23.9219 34.6777 24.0885 34.1569 24.2031C33.636 24.3281 33.1517 24.3906 32.7038 24.3906C31.985 24.3906 31.3235 24.3021 30.7194 24.125C30.1152 23.9479 29.5944 23.7344 29.1569 23.4844C28.7194 23.224 28.3808 22.9531 28.1413 22.6719C27.8913 22.3802 27.7663 22.125 27.7663 21.9062C27.7663 21.75 27.8444 21.5 28.0006 21.1562C28.1569 20.8021 28.3392 20.4427 28.5475 20.0781C28.7663 19.7135 28.9798 19.3958 29.1881 19.125C29.3965 18.8438 29.5579 18.7031 29.6725 18.7031C29.7663 18.7031 29.8704 18.7917 29.985 18.9688C30.0996 19.1458 30.2298 19.3646 30.3756 19.625C30.5319 19.8854 30.7038 20.1719 30.8913 20.4844C31.0892 20.7969 31.3183 21.0833 31.5788 21.3438C31.8496 21.6042 32.1517 21.8229 32.485 22C32.8183 22.1771 33.2038 22.2656 33.6413 22.2656C34.2975 22.2656 34.8027 22.099 35.1569 21.7656C35.5215 21.4323 35.7038 20.9844 35.7038 20.4219C35.7038 20.0781 35.61 19.7604 35.4225 19.4688C35.2454 19.1667 35.0058 18.8854 34.7038 18.625C34.4017 18.3646 34.0579 18.125 33.6725 17.9062C33.2975 17.6771 32.9173 17.4583 32.5319 17.25C31.9798 16.9688 31.5215 16.6823 31.1569 16.3906C30.8027 16.0885 30.5215 15.7865 30.3131 15.4844C30.1048 15.1719 29.959 14.8542 29.8756 14.5312C29.7923 14.2083 29.7506 13.8802 29.7506 13.5469C29.7506 12.8906 29.9538 12.2917 30.36 11.75C30.7663 11.2083 31.2767 10.7448 31.8913 10.3594C32.5058 9.96354 33.1777 9.66146 33.9069 9.45312C34.6465 9.23438 35.3444 9.125 36.0006 9.125C36.5631 9.125 37.0683 9.19271 37.5163 9.32812C37.9746 9.45312 38.3965 9.59896 38.7819 9.76562C39.1673 9.92188 39.5319 10.0781 39.8756 10.2344C40.2194 10.3906 40.5683 10.5 40.9225 10.5625Z" fill="#0F2B4A"/>
<path d="M57.4463 21.8438C56.9775 22.125 56.4619 22.4167 55.8994 22.7188C55.3473 23.0208 54.8004 23.2969 54.2588 23.5469C53.7275 23.7865 53.2275 23.9844 52.7588 24.1406C52.3004 24.3073 51.9306 24.3906 51.6494 24.3906C51.2848 24.3906 50.9723 24.224 50.7119 23.8906C50.4619 23.5677 50.3369 23.125 50.3369 22.5625C50.3369 22.375 50.3681 22.0677 50.4306 21.6406C50.4931 21.2135 50.5713 20.724 50.665 20.1719C50.7588 19.6198 50.8577 19.0365 50.9619 18.4219C51.066 17.8073 51.165 17.2188 51.2588 16.6562C51.3525 16.0833 51.4306 15.5677 51.4931 15.1094C51.5556 14.651 51.5869 14.3021 51.5869 14.0625C51.5869 13.5 51.54 13.1094 51.4463 12.8906C51.3629 12.6719 51.1702 12.5625 50.8681 12.5625C50.7327 12.5625 50.5556 12.5938 50.3369 12.6562C50.1181 12.7188 49.8785 12.8281 49.6181 12.9844C49.3577 13.1406 49.0817 13.3594 48.79 13.6406C48.5088 13.9115 48.2327 14.2604 47.9619 14.6875C47.6494 15.1875 47.4046 15.7865 47.2275 16.4844C47.0608 17.1823 46.889 18.0365 46.7119 19.0469C46.6285 19.5156 46.5608 19.9219 46.5088 20.2656C46.4567 20.599 46.415 20.901 46.3838 21.1719C46.3629 21.4323 46.3473 21.6771 46.3369 21.9062C46.3369 22.125 46.3421 22.349 46.3525 22.5781C46.2588 22.6302 46.1077 22.7031 45.8994 22.7969C45.7015 22.8906 45.4671 23 45.1963 23.125C44.9358 23.2396 44.6598 23.3646 44.3681 23.5C44.0765 23.625 43.7952 23.7448 43.5244 23.8594C43.264 23.974 43.0296 24.0781 42.8213 24.1719C42.6233 24.276 42.4827 24.349 42.3994 24.3906L41.7275 23.75C41.9463 22.7083 42.1494 21.6406 42.3369 20.5469C42.5348 19.4427 42.7067 18.401 42.8525 17.4219C43.0088 16.4323 43.1285 15.5573 43.2119 14.7969C43.3056 14.026 43.3525 13.4583 43.3525 13.0938C43.3525 12.8542 43.3369 12.6667 43.3056 12.5312C43.2848 12.3854 43.2483 12.2812 43.1963 12.2188C43.1442 12.1458 43.0817 12.099 43.0088 12.0781C42.9358 12.0573 42.8525 12.0469 42.7588 12.0469C42.665 12.0469 42.5348 12.0677 42.3681 12.1094C42.2015 12.151 42.0348 12.1979 41.8681 12.25C41.6806 12.3125 41.4723 12.3802 41.2431 12.4531L40.9306 11.2188C41.2223 11.0938 41.5556 10.9531 41.9306 10.7969C42.316 10.6406 42.7119 10.4896 43.1181 10.3438C43.5244 10.1875 43.9306 10.0365 44.3369 9.89062C44.7431 9.74479 45.1181 9.61458 45.4619 9.5C45.816 9.38542 46.1181 9.29688 46.3681 9.23438C46.6285 9.16146 46.816 9.125 46.9306 9.125C47.0765 9.125 47.1963 9.15104 47.29 9.20312C47.3942 9.24479 47.4723 9.32812 47.5244 9.45312C47.5869 9.57812 47.6285 9.75521 47.6494 9.98438C47.6806 10.2135 47.6963 10.5156 47.6963 10.8906C47.6963 11.1094 47.691 11.3229 47.6806 11.5312C47.6702 11.7292 47.6494 11.9583 47.6181 12.2188C48.7535 11.1771 49.8681 10.401 50.9619 9.89062C52.0556 9.38021 53.0713 9.125 54.0088 9.125C54.3317 9.125 54.6233 9.15625 54.8838 9.21875C55.1442 9.28125 55.3629 9.40104 55.54 9.57812C55.7275 9.74479 55.8681 9.98958 55.9619 10.3125C56.0556 10.625 56.1025 11.0312 56.1025 11.5312C56.1025 11.8958 56.0713 12.3229 56.0088 12.8125C55.9463 13.3021 55.8629 13.8229 55.7588 14.375C55.665 14.9167 55.5608 15.474 55.4463 16.0469C55.3317 16.6198 55.2223 17.1667 55.1181 17.6875C55.0244 18.2083 54.9463 18.6927 54.8838 19.1406C54.8213 19.5781 54.79 19.9427 54.79 20.2344C54.79 20.5885 54.8369 20.8333 54.9306 20.9688C55.0244 21.0938 55.165 21.1562 55.3525 21.1562C55.4775 21.1562 55.5921 21.1458 55.6963 21.125C55.8004 21.1042 55.9098 21.0729 56.0244 21.0312C56.139 20.9896 56.2692 20.9375 56.415 20.875C56.5713 20.8125 56.7588 20.7344 56.9775 20.6406L57.4463 21.8438Z" fill="#0F2B4A"/>
<path d="M66.2669 21.8438C65.7773 22.1354 65.2565 22.4323 64.7044 22.7344C64.1627 23.0365 63.6263 23.3125 63.095 23.5625C62.5742 23.8021 62.0846 24 61.6263 24.1562C61.1679 24.3125 60.7825 24.3906 60.47 24.3906C60.1158 24.3906 59.8085 24.224 59.5481 23.8906C59.2877 23.5677 59.1575 23.125 59.1575 22.5625C59.1575 22.25 59.1888 21.8385 59.2513 21.3281C59.3242 20.8073 59.4127 20.2396 59.5169 19.625C59.621 19.0104 59.7356 18.375 59.8606 17.7188C59.9856 17.0625 60.1002 16.4375 60.2044 15.8438C60.3085 15.25 60.3919 14.7135 60.4544 14.2344C60.5273 13.7448 60.5638 13.375 60.5638 13.125C60.5638 12.8854 60.5481 12.6979 60.5169 12.5625C60.4856 12.4167 60.444 12.3125 60.3919 12.25C60.3398 12.1771 60.2721 12.1302 60.1888 12.1094C60.1054 12.0885 60.0169 12.0781 59.9231 12.0781C59.8398 12.0781 59.72 12.099 59.5638 12.1406C59.4075 12.1719 59.2513 12.2135 59.095 12.2656C58.9075 12.3177 58.7148 12.3802 58.5169 12.4531L58.22 11.25C58.6575 11.0521 59.1679 10.8333 59.7513 10.5938C60.345 10.3438 60.9283 10.1094 61.5013 9.89062C62.0846 9.67188 62.6158 9.48958 63.095 9.34375C63.5742 9.19792 63.9231 9.125 64.1419 9.125C64.4335 9.125 64.6627 9.22396 64.8294 9.42188C65.0065 9.61979 65.095 9.95833 65.095 10.4375C65.095 10.7396 65.0585 11.151 64.9856 11.6719C64.9127 12.1927 64.819 12.7656 64.7044 13.3906C64.6002 14.0052 64.4856 14.6562 64.3606 15.3438C64.2356 16.0208 64.1158 16.6719 64.0013 17.2969C63.8971 17.9115 63.8085 18.4792 63.7356 19C63.6627 19.5208 63.6263 19.9323 63.6263 20.2344C63.6263 20.5573 63.6575 20.7917 63.72 20.9375C63.7929 21.0833 63.9179 21.1562 64.095 21.1562C64.2513 21.1562 64.3971 21.1458 64.5325 21.125C64.6679 21.1042 64.8033 21.0729 64.9388 21.0312C65.0846 20.9896 65.2356 20.9375 65.3919 20.875C65.5481 20.8125 65.7356 20.7344 65.9544 20.6406L66.2669 21.8438ZM66.6106 4.03125C66.6106 4.32292 66.5429 4.63021 66.4075 4.95312C66.2825 5.27604 66.0898 5.57292 65.8294 5.84375C65.5794 6.11458 65.2669 6.33854 64.8919 6.51562C64.5169 6.69271 64.0846 6.78125 63.595 6.78125C63.2825 6.78125 63.0117 6.74479 62.7825 6.67188C62.5533 6.58854 62.3658 6.47917 62.22 6.34375C62.0742 6.20833 61.9648 6.05729 61.8919 5.89062C61.8294 5.72396 61.7981 5.55208 61.7981 5.375C61.7981 5.09375 61.8606 4.79167 61.9856 4.46875C62.121 4.14583 62.319 3.84896 62.5794 3.57812C62.8398 3.29688 63.1523 3.06771 63.5169 2.89062C63.8919 2.70312 64.3242 2.60938 64.8138 2.60938C65.1263 2.60938 65.3971 2.65104 65.6263 2.73438C65.8554 2.81771 66.0429 2.92708 66.1888 3.0625C66.3346 3.1875 66.4388 3.33854 66.5013 3.51562C66.5742 3.68229 66.6106 3.85417 66.6106 4.03125Z" fill="#0F2B4A"/>
<path d="M74.775 1.60938C74.775 2.01562 74.7437 2.52083 74.6812 3.125C74.6187 3.71875 74.5354 4.38542 74.4312 5.125C74.3375 5.86458 74.2229 6.65625 74.0875 7.5C73.9521 8.33333 73.8115 9.19271 73.6656 10.0781C73.5198 10.9635 73.3687 11.8594 73.2125 12.7656C73.0667 13.6615 72.926 14.5312 72.7906 15.375L75.2125 13.5938C75.9312 13.0625 76.499 12.625 76.9156 12.2812C77.3427 11.9271 77.6031 11.651 77.6969 11.4531C77.7906 11.2448 77.7177 11.1094 77.4781 11.0469C77.249 10.974 76.8479 10.9479 76.275 10.9688L76.1344 9.73438C76.5927 9.66146 77.0562 9.59375 77.525 9.53125C77.9937 9.46875 78.4469 9.41667 78.8844 9.375C79.3219 9.32292 79.7385 9.28646 80.1344 9.26562C80.5302 9.23438 80.8948 9.21875 81.2281 9.21875C81.8844 9.21875 82.3219 9.31771 82.5406 9.51562C82.7698 9.71354 82.8844 9.98958 82.8844 10.3438C82.8844 10.5 82.7698 10.7135 82.5406 10.9844C82.3219 11.2448 81.9937 11.5521 81.5562 11.9062C81.1292 12.25 80.6083 12.6406 79.9937 13.0781C79.3792 13.5052 78.6812 13.9583 77.9 14.4375L75.9 15.6719C76.15 15.9531 76.3948 16.2865 76.6344 16.6719C76.8844 17.0469 77.1187 17.4375 77.3375 17.8438C77.5667 18.25 77.7906 18.651 78.0094 19.0469C78.2281 19.4427 78.4417 19.7969 78.65 20.1094C78.8687 20.4219 79.0771 20.6771 79.275 20.875C79.4833 21.0625 79.6917 21.1562 79.9 21.1562C80.1396 21.1562 80.4469 21.1198 80.8219 21.0469C81.2073 20.9635 81.5979 20.8125 81.9937 20.5938L82.5719 21.75C82.2281 22.0417 81.8375 22.3438 81.4 22.6562C80.9729 22.9583 80.5458 23.2396 80.1187 23.5C79.6917 23.75 79.2906 23.9531 78.9156 24.1094C78.5406 24.276 78.2333 24.3594 77.9937 24.3594C77.65 24.3594 77.3167 24.2083 76.9937 23.9062C76.6708 23.6146 76.3531 23.2344 76.0406 22.7656C75.7385 22.2865 75.4365 21.7552 75.1344 21.1719C74.8427 20.5781 74.551 19.9896 74.2594 19.4062C73.9781 18.8125 73.7021 18.2552 73.4312 17.7344C73.1604 17.2031 72.8948 16.7656 72.6344 16.4219C72.5198 17.1615 72.4156 17.8594 72.3219 18.5156C72.2385 19.1719 72.1708 19.7708 72.1187 20.3125C72.0771 20.8438 72.051 21.3021 72.0406 21.6875C72.0406 22.0729 72.0667 22.3594 72.1187 22.5469C72.025 22.599 71.8687 22.6719 71.65 22.7656C71.4417 22.8594 71.2021 22.9688 70.9312 23.0938C70.6604 23.2188 70.374 23.349 70.0719 23.4844C69.7698 23.6094 69.4833 23.7292 69.2125 23.8438C68.9521 23.9688 68.7177 24.0781 68.5094 24.1719C68.301 24.276 68.1552 24.349 68.0719 24.3906L67.3687 23.75C67.4104 23.4479 67.4833 22.9792 67.5875 22.3438C67.6917 21.6979 67.8115 20.9479 67.9469 20.0938C68.0927 19.2292 68.249 18.2917 68.4156 17.2812C68.5927 16.2604 68.7646 15.2188 68.9312 14.1562C69.0979 13.0938 69.2594 12.0469 69.4156 11.0156C69.5823 9.97396 69.7281 9 69.8531 8.09375C69.9781 7.1875 70.0771 6.38021 70.15 5.67188C70.2229 4.96354 70.2594 4.41146 70.2594 4.01562C70.2594 3.75521 70.2437 3.55208 70.2125 3.40625C70.1812 3.26042 70.1344 3.15104 70.0719 3.07812C70.0094 3.00521 69.9312 2.96354 69.8375 2.95312C69.7437 2.93229 69.6344 2.92188 69.5094 2.92188C69.426 2.92188 69.301 2.94792 69.1344 3C68.9677 3.04167 68.7958 3.08854 68.6187 3.14062C68.4208 3.20312 68.2073 3.27083 67.9781 3.34375L67.6812 2.10938C68.1187 1.91146 68.6448 1.69271 69.2594 1.45312C69.8844 1.20312 70.499 0.973958 71.1031 0.765625C71.7177 0.546875 72.275 0.364583 72.775 0.21875C73.2854 0.0729167 73.6448 0 73.8531 0C73.999 0 74.1292 0.015625 74.2437 0.046875C74.3583 0.078125 74.4521 0.151042 74.525 0.265625C74.6083 0.369792 74.6708 0.53125 74.7125 0.75C74.7542 0.958333 74.775 1.24479 74.775 1.60938Z" fill="#0F2B4A"/>
</svg>
